<!DOCTYPE svg PUBLIC "-//W3C//DTD SVG 20010904//EN" "http://www.w3.org/TR/2001/REC-SVG-20010904/DTD/svg10.dtd">
<svg version="1.0" xmlns="http://www.w3.org/2000/svg" width="1200px" height="439px" viewBox="0 0 12000 4390" preserveAspectRatio="xMidYMid meet">
<g id="layer101" fill="#70a6da" stroke="none">
<path d="M10161 2439 c-113 -29 -315 -133 -526 -272 -228 -149 -342 -217 -540 -327 -82 -45 -230 -127 -327 -182 -188 -105 -342 -177 -448 -208 -113 -34 -670 -136 -905 -166 -195 -25 -569 -25 -758 -1 -209 28 -485 99 -746 194 -130 47 -407 172 -451 203 -57 40 -258 134 -368 170 -140 47 -289 70 -445 70 -191 0 -325 -34 -708 -180 -317 -122 -448 -162 -623 -194 -230 -42 -338 -51 -611 -51 l-260 1 -119 32 c-127 33 -235 80 -313 134 -79 53 -149 125 -283 288 -270 328 -363 385 -630 385 -147 -1 -152 -2 -445 -85 -159 -46 -516 -160 -612 -196 l-43 -16 0 -1019 0 -1019 6000 0 6000 0 0 789 0 789 -74 89 c-172 207 -295 296 -723 522 -226 119 -305 153 -477 206 -224 67 -419 83 -565 44z"/>
</g>
<g id="layer102" fill="#8bd2f5" stroke="none">
<path d="M10161 2439 c-113 -29 -315 -133 -526 -272 -228 -149 -342 -217 -540 -327 -82 -45 -230 -127 -327 -182 -188 -105 -342 -177 -448 -208 -113 -34 -670 -136 -905 -166 -195 -25 -569 -25 -758 -1 -209 28 -485 99 -746 194 -130 47 -407 172 -451 203 -57 40 -258 134 -368 170 -140 47 -289 70 -445 70 -191 0 -325 -34 -708 -180 -317 -122 -448 -162 -623 -194 -230 -42 -338 -51 -611 -51 l-260 1 -119 32 c-127 33 -235 80 -313 134 -79 53 -149 125 -283 288 -270 328 -363 385 -630 385 -147 -1 -152 -2 -445 -85 -159 -46 -516 -160 -612 -196 l-43 -16 0 -349 0 -349 38 16 c117 51 406 131 600 165 311 55 712 2 1127 -150 28 -10 139 -55 247 -99 261 -106 298 -115 478 -116 171 -1 287 19 540 90 473 133 786 211 975 241 158 26 524 23 680 -6 198 -36 432 -97 688 -181 357 -116 562 -179 652 -200 171 -39 694 -97 1096 -120 292 -18 496 6 870 100 64 16 183 43 265 60 216 45 646 157 979 255 357 105 521 147 714 179 240 41 403 52 547 37 139 -13 430 -61 549 -90 228 -55 581 -182 823 -297 63 -30 119 -54 123 -54 5 0 9 92 9 204 l0 204 -74 89 c-172 207 -295 296 -723 522 -226 119 -305 153 -477 206 -224 67 -419 83 -565 44z"/>
<path d="M1952 1138 c-15 -15 -15 -48 -1 -85 28 -75 116 -123 225 -123 86 0 121 20 111 62 -7 28 -43 46 -134 67 -30 8 -73 29 -104 52 -55 41 -77 47 -97 27z"/>
</g>
<g id="layer103" fill="#fafcfe" stroke="none">
<path d="M10670 2121 c0 -32 66 -77 177 -121 125 -50 173 -60 173 -37 0 23 -118 104 -208 143 -89 39 -142 45 -142 15z"/>
<path d="M9686 1250 c-71 -22 -148 -73 -171 -112 -15 -27 -15 -31 -1 -53 30 -45 88 -29 234 64 77 50 111 88 98 110 -11 17 -94 12 -160 -9z"/>
</g>


</svg>